Coordinates
version=1
nRows=25
nColumns=33
inDegrees=yes

Units are S.I. units (second, meters, Newtons, ...)
Angles are in degrees.

endheader
time	ground_thorax_rot_x	ground_thorax_rot_y	ground_thorax_rot_z	ground_thorax_tx	ground_thorax_ty	ground_thorax_tz	clav_prot_r	clav_elev_r	scapula_abduction_r	scapula_elevation_r	scapula_upward_rot_r	scapula_winging_r	shoulder_elv_r	plane_of_elev_r	axial_rot_r	elbow_flexion_r	pro_sup_r	wrist_flex_r	wrist_dev_r	clav_prot_l	clav_elev_l	scapula_abduction_l	scapula_elevation_l	scapula_upward_rot_l	scapula_winging_l	shoulder_elv_l	plane_of_elev_l	axial_rot_l	elbow_flexion_l	pro_sup_l	wrist_flex_l	wrist_dev_l	
6.9700	25.282762	31.022228	44.906447	-86.102694	848.679841	-47.554607	13.295667	34.299396	28.263497	45.000000	-45.000000	270.653210	-1366.200303	21.571628	-161.421325	2518.567292	159.510982	15.871022	14.958933	-6.862212	-45.000000	-40.712609	45.000000	-45.000000	3705.497434	-2439.881448	26.000670	30.063165	1068.000342	34.223454	14.861163	-19.616575	
6.9800	25.236930	31.062534	45.047557	-85.030569	848.360545	-47.492323	13.305872	34.307776	28.323305	45.000000	-45.000000	270.704102	-1366.243771	21.585881	-161.573981	2518.563607	159.535871	15.805176	14.989482	-6.897989	-45.000000	-40.683928	45.000000	-45.000000	3705.441200	-2439.902298	26.027833	30.228893	1067.989813	34.233354	14.890827	-19.535728	
6.9900	25.193419	31.107237	45.189668	-83.934910	848.033897	-47.430900	13.319477	34.322947	28.372777	45.000000	-45.000000	270.753013	-1366.280911	21.609324	-161.728443	2518.559715	159.575403	15.739903	15.019550	-6.938027	-45.000000	-40.655200	45.000000	-45.000000	3705.385164	-2439.928343	26.059026	30.399775	1067.976931	34.249807	14.922418	-19.452845	
7.0000	25.162979	31.147757	45.319473	-82.816170	847.698706	-47.370511	13.325345	34.342018	28.429751	45.000000	-45.000000	270.803332	-1366.316490	21.628984	-161.885140	2518.552796	159.630163	15.684462	15.041760	-6.974484	-45.000000	-40.618036	45.000000	-45.000000	3705.327963	-2439.961893	26.097510	30.574045	1067.963827	34.271049	14.955892	-19.375878	
7.0100	25.115246	31.202943	45.476409	-81.674713	847.353789	-47.311186	13.342947	34.357007	28.470862	45.000000	-45.000000	270.849050	-1366.346825	21.655605	-162.043286	2518.550769	159.703935	15.619493	15.066020	-7.023699	-45.000000	-40.588430	45.000000	-45.000000	3705.266701	-2439.987672	26.124146	30.749570	1067.949331	34.299478	14.983089	-19.289009	
7.0200	25.067021	31.253772	45.635572	-80.510449	846.997999	-47.252757	13.355558	34.375984	28.523886	45.000000	-45.000000	270.900681	-1366.382598	21.671608	-162.201601	2518.551230	159.793231	15.561966	15.078386	-7.070679	-45.000000	-40.558322	45.000000	-45.000000	3705.206971	-2440.014719	26.150130	30.920838	1067.935686	34.333175	15.009650	-19.206026	
7.0300	25.006403	31.310992	45.814338	-79.323406	846.630467	-47.194888	13.374805	34.390306	28.567897	45.000000	-45.000000	270.951839	-1366.417192	21.694195	-162.355483	2518.558312	159.900665	15.494810	15.097661	-7.127237	-45.000000	-40.533907	45.000000	-45.000000	3705.145885	-2440.037023	26.166492	31.088717	1067.918236	34.374566	15.031192	-19.114934	
7.0400	24.949002	31.362907	45.988801	-78.113401	846.250459	-47.137089	13.390194	34.409510	28.615946	45.000000	-45.000000	271.009214	-1366.456968	21.713339	-162.507124	2518.565834	160.021911	15.434108	15.109365	-7.183091	-45.000000	-40.507614	45.000000	-45.000000	3705.085646	-2440.062022	26.183942	31.253776	1067.899163	34.421405	15.052448	-19.028341	
7.0500	24.884668	31.419900	46.172610	-76.880573	845.857447	-47.078813	13.408236	34.425333	28.657269	45.000000	-45.000000	271.066844	-1366.498881	21.734017	-162.656012	2518.574514	160.157098	15.370183	15.126301	-7.243203	-45.000000	-40.481411	45.000000	-45.000000	3705.023651	-2440.085971	26.197678	31.415787	1067.879397	34.474763	15.069557	-18.937195	
7.0600	24.826749	31.473027	46.346870	-75.625300	845.450953	-47.019487	13.420807	34.447442	28.703668	45.000000	-45.000000	271.129997	-1366.544941	21.747743	-162.803924	2518.580578	160.300873	15.316414	15.133766	-7.298683	-45.000000	-40.449332	45.000000	-45.000000	3704.962149	-2440.116445	26.216832	31.573401	1067.861341	34.532359	15.087217	-18.853702	
7.0700	24.766635	31.530673	46.525737	-74.348668	845.030632	-46.958559	13.434955	34.464714	28.744026	45.000000	-45.000000	271.193562	-1366.588582	21.763319	-162.947695	2518.586800	160.453162	15.260690	15.147571	-7.354876	-45.000000	-40.413287	45.000000	-45.000000	3704.898456	-2440.148926	26.233895	31.724739	1067.843875	34.596042	15.100662	-18.766012	
7.0800	24.707555	31.589267	46.704399	-73.052128	844.596171	-46.895454	13.446900	34.489176	28.786759	45.000000	-45.000000	271.260275	-1366.635641	21.774068	-163.090021	2518.594167	160.609760	15.208984	15.154650	-7.411291	-45.000000	-40.376507	45.000000	-45.000000	3704.837072	-2440.185106	26.250138	31.870050	1067.825936	34.664304	15.114251	-18.684287	
7.0900	24.641231	31.653653	46.892068	-71.737449	844.147348	-46.829565	13.462840	34.508033	28.822032	45.000000	-45.000000	271.327234	-1366.682319	21.786166	-163.228429	2518.601346	160.770748	15.154244	15.166960	-7.470251	-45.000000	-40.337553	45.000000	-45.000000	3704.773100	-2440.219949	26.260509	32.006173	1067.809760	34.739329	15.121543	-18.595530	
7.1000	24.581488	31.713679	47.070102	-70.406293	843.683974	-46.760265	13.471364	34.534882	28.868203	45.000000	-45.000000	271.396411	-1366.734480	21.790680	-163.362958	2518.608212	160.934299	15.103750	15.176616	-7.525242	-45.000000	-40.296323	45.000000	-45.000000	3704.714180	-2440.262092	26.277288	32.134971	1067.793698	34.819604	15.132223	-18.517087	
7.1100	24.526307	31.772940	47.241110	-69.060196	843.205945	-46.687004	13.480764	34.557442	28.907783	45.000000	-45.000000	271.464288	-1366.783551	21.803915	-163.491086	2518.614179	161.103836	15.050581	15.196085	-7.582517	-45.000000	-40.251013	45.000000	-45.000000	3704.652719	-2440.306284	26.295273	32.258621	1067.775991	34.908758	15.139887	-18.434662	
7.1200	24.478309	31.830702	47.398951	-67.700097	842.713049	-46.609441	13.486039	34.584831	28.947416	45.000000	-45.000000	271.531523	-1366.831435	21.817349	-163.615363	2518.618401	161.279541	14.999800	15.215842	-7.636976	-45.000000	-40.204618	45.000000	-45.000000	3704.590684	-2440.355860	26.320679	32.377685	1067.757405	35.005148	15.148738	-18.358621	
7.1300	24.420387	31.896620	47.564104	-66.326668	842.204986	-46.527625	13.500203	34.605683	28.968069	45.000000	-45.000000	271.596841	-1366.872561	21.840725	-163.737643	2518.623240	161.462786	14.944829	15.237938	-7.697997	-45.000000	-40.159225	45.000000	-45.000000	3704.519058	-2440.399925	26.339296	32.490132	1067.740513	35.110471	15.148588	-18.271179	
7.1400	24.356472	31.964506	47.732309	-64.940286	841.681256	-46.442105	13.512986	34.627613	28.991031	45.000000	-45.000000	271.664425	-1366.913368	21.856960	-163.859056	2518.630238	161.652398	14.889776	15.256086	-7.755927	-45.000000	-40.116946	45.000000	-45.000000	3704.447024	-2440.444298	26.357732	32.592583	1067.726319	35.221270	15.146188	-18.185049	
7.1500	24.283113	32.035128	47.911149	-63.541750	841.141327	-46.353977	13.529598	34.645806	29.007531	45.000000	-45.000000	271.734550	-1366.953173	21.876427	-163.980262	2518.642403	161.849474	14.831305	15.272944	-7.819713	-45.000000	-40.076633	45.000000	-45.000000	3704.372759	-2440.484223	26.365377	32.686650	1067.713143	35.337958	15.136663	-18.090075	
7.1600	24.200015	32.107623	48.100043	-62.132071	840.584546	-46.264766	13.545459	34.662867	29.025154	45.000000	-45.000000	271.809954	-1366.994227	21.887841	-164.102553	2518.656787	162.053829	14.771800	15.285524	-7.881806	-45.000000	-40.038520	45.000000	-45.000000	3704.300508	-2440.523538	26.367005	32.769737	1067.703055	35.457246	15.123384	-17.993727	
7.1700	24.111241	32.177536	48.295883	-60.713163	840.010435	-46.176238	13.559266	34.680176	29.045808	45.000000	-45.000000	271.890587	-1367.039572	21.896951	-164.226090	2518.676269	162.266202	14.711847	15.294297	-7.947404	-45.000000	-39.999290	45.000000	-45.000000	3704.231587	-2440.563010	26.360926	32.845179	1067.695878	35.578435	15.106218	-17.894338	
7.1800	24.021701	32.242299	48.489677	-59.287509	839.418654	-46.090086	13.570055	34.697951	29.066724	45.000000	-45.000000	271.977523	-1367.085520	21.905143	-164.349809	2518.695357	162.488261	14.652556	15.302240	-8.012138	-45.000000	-39.958200	45.000000	-45.000000	3704.166663	-2440.605707	26.355521	32.913292	1067.689575	35.700458	15.089182	-17.797499	
7.1900	23.942379	32.298220	48.668985	-57.858539	838.809225	-46.007656	13.574189	34.720895	29.090712	45.000000	-45.000000	272.066771	-1367.135833	21.917248	-164.474769	2518.712646	162.721566	14.598784	15.308862	-8.078168	-45.000000	-39.913625	45.000000	-45.000000	3704.107559	-2440.655273	26.354477	32.981374	1067.681401	35.824065	15.074980	-17.705109	
7.2000	23.856755	32.355562	48.853852	-56.429817	838.182321	-45.929677	13.581590	34.740157	29.103440	45.000000	-45.000000	272.159991	-1367.183838	21.933561	-164.600827	2518.731710	162.967251	14.541873	15.317150	-8.148844	-45.000000	-39.868745	45.000000	-45.000000	3704.046218	-2440.701769	26.348175	33.047103	1067.673425	35.950214	15.055159	-17.606543	
7.2100	23.786741	32.405593	49.013059	-55.005028	837.538384	-45.856209	13.582200	34.765351	29.114828	45.000000	-45.000000	272.251488	-1367.233489	21.954728	-164.726220	2518.742318	163.222681	14.495797	15.322916	-8.215350	-45.000000	-39.820091	45.000000	-45.000000	3703.990404	-2440.760012	26.356731	33.112731	1067.665617	36.078097	15.041812	-17.516237	
